<?xml version="1.0" encoding="UTF-8" standalone="no"?>
<!-- Created with Inkscape (http://www.inkscape.org/) -->

<svg
   xmlns:dc="http://purl.org/dc/elements/1.1/"
   xmlns:cc="http://creativecommons.org/ns#"
   xmlns:rdf="http://www.w3.org/1999/02/22-rdf-syntax-ns#"
   xmlns:svg="http://www.w3.org/2000/svg"
   xmlns="http://www.w3.org/2000/svg"
   xmlns:sodipodi="http://sodipodi.sourceforge.net/DTD/sodipodi-0.dtd"
   xmlns:inkscape="http://www.inkscape.org/namespaces/inkscape"
   width="150"
   height="380"
   viewBox="0 0 150 380"
   version="1.1"
   id="svg8"
   inkscape:version="0.92.2 5c3e80d, 2017-08-06"
   sodipodi:docname="GateLengthTurbo.svg"
   style="enable-background:new">
  <defs
     id="defs2" />
  <sodipodi:namedview
     id="base"
     pagecolor="#ffffff"
     bordercolor="#666666"
     borderopacity="1.0"
     inkscape:pageopacity="0.0"
     inkscape:pageshadow="2"
     inkscape:zoom="1.6394402"
     inkscape:cx="-115.25759"
     inkscape:cy="340.97002"
     inkscape:document-units="px"
     inkscape:current-layer="layer3"
     showgrid="false"
     units="px"
     inkscape:snap-bbox="false"
     inkscape:snap-page="true"
     inkscape:bbox-nodes="true"
     inkscape:snap-bbox-edge-midpoints="true"
     inkscape:window-width="1257"
     inkscape:window-height="834"
     inkscape:window-x="85"
     inkscape:window-y="0"
     inkscape:window-maximized="0"
     inkscape:measure-start="0,0"
     inkscape:measure-end="0,0"
     inkscape:snap-text-baseline="true"
     inkscape:snap-nodes="false"
     inkscape:snap-others="false"
     inkscape:snap-grids="false"
     showguides="true"
     inkscape:guide-bbox="true"
     inkscape:snap-to-guides="false"
     inkscape:object-nodes="false"
     inkscape:snap-global="false">
    <inkscape:grid
       type="xygrid"
       id="grid6570"
       units="px"
       empspacing="5" />
    <sodipodi:guide
       position="38.714733,89.341691"
       orientation="0,1"
       id="guide9112"
       inkscape:locked="false" />
    <sodipodi:guide
       position="20.250783,179.27899"
       orientation="1,0"
       id="guide9114"
       inkscape:locked="false" />
    <sodipodi:guide
       position="68.495297,90.532914"
       orientation="1,0"
       id="guide9116"
       inkscape:locked="false" />
    <sodipodi:guide
       position="59.776502,354.99922"
       orientation="0,1"
       id="guide2833"
       inkscape:locked="false" />
  </sodipodi:namedview>
  <metadata
     id="metadata5">
    <rdf:RDF>
      <cc:Work
         rdf:about="">
        <dc:format>image/svg+xml</dc:format>
        <dc:type
           rdf:resource="http://purl.org/dc/dcmitype/StillImage" />
        <dc:title />
      </cc:Work>
    </rdf:RDF>
  </metadata>
  <g
     inkscape:groupmode="layer"
     id="layer10"
     inkscape:label="Layer 1">
    <rect
       style="opacity:1;fill:#e6e6e6;fill-opacity:1;fill-rule:evenodd;stroke:#000000;stroke-width:0.88536358;stroke-miterlimit:4;stroke-dasharray:0, 9.73899884;stroke-dashoffset:0;stroke-opacity:0.00485439"
       id="rect5174"
       width="149.11464"
       height="388.27185"
       x="0.44268179"
       y="-8.714509"
       rx="0"
       ry="0" />
  </g>
  <g
     inkscape:groupmode="layer"
     id="layer3"
     inkscape:label="test">
    <g
       transform="translate(-4.813929,8.168531)"
       id="g3204"
       style="font-style:normal;font-variant:normal;font-weight:bold;font-stretch:normal;font-size:10.66666698px;line-height:1.25;font-family:'Trebuchet MS';-inkscape-font-specification:'Trebuchet MS, Bold';font-variant-ligatures:normal;font-variant-caps:normal;font-variant-numeric:normal;font-feature-settings:normal;text-align:center;letter-spacing:0px;word-spacing:0px;writing-mode:lr-tb;text-anchor:middle;display:inline;opacity:0.2681564;fill:#000000;fill-opacity:1;stroke:none;enable-background:new"
       aria-label="Alikins">
      <path
         inkscape:connector-curvature="0"
         id="path3190"
         d="m 32.985402,369.17804 -0.557292,-1.54688 h -2.614583 l -0.53125,1.54688 h -1.505208 l 3.041666,-7.73438 h 0.59375 l 3.067709,7.73438 z m -1.869792,-5.40104 -0.916666,2.81771 h 1.833333 z" />
      <path
         inkscape:connector-curvature="0"
         id="path3192"
         d="m 35.42811,361.52179 1.302084,-0.3125 v 6.27083 q 0,1.03125 0.614583,1.22917 -0.302083,0.57292 -1.03125,0.57292 -0.885417,0 -0.885417,-1.22917 z" />
      <path
         inkscape:connector-curvature="0"
         id="path3194"
         d="m 39.370819,361.43846 q 0.3125,0 0.53125,0.22395 0.223959,0.21875 0.223959,0.53125 0,0.3125 -0.223959,0.53646 -0.21875,0.21875 -0.53125,0.21875 -0.3125,0 -0.536458,-0.21875 -0.21875,-0.22396 -0.21875,-0.53646 0,-0.3125 0.21875,-0.53125 0.223958,-0.22395 0.536458,-0.22395 z m -0.671875,7.73958 v -4.51042 h -0.713541 v -1.06771 h 2.03125 v 5.57813 z" />
      <path
         inkscape:connector-curvature="0"
         id="path3196"
         d="m 45.105194,369.17804 -1.640625,-2.52604 -0.625,0.66146 v 1.86458 h -1.302083 v -7.65625 l 1.302083,-0.3125 v 4.53125 l 1.859375,-2.14063 h 1.567709 l -1.885417,2.11459 2.270833,3.46354 z" />
      <path
         inkscape:connector-curvature="0"
         id="path3198"
         d="m 48.412485,361.43846 q 0.3125,0 0.53125,0.22395 0.223959,0.21875 0.223959,0.53125 0,0.3125 -0.223959,0.53646 -0.21875,0.21875 -0.53125,0.21875 -0.3125,0 -0.536458,-0.21875 -0.21875,-0.22396 -0.21875,-0.53646 0,-0.3125 0.21875,-0.53125 0.223958,-0.22395 0.536458,-0.22395 z m -0.671875,7.73958 v -4.51042 h -0.713541 v -1.06771 h 2.03125 v 5.57813 z" />
      <path
         inkscape:connector-curvature="0"
         id="path3200"
         d="m 54.167694,369.17804 v -3.22396 q 0,-0.71354 -0.276042,-1.04167 -0.270833,-0.32812 -0.890625,-0.32812 -0.286458,0 -0.614583,0.16146 -0.322917,0.16146 -0.505209,0.40104 v 4.03125 h -1.302083 v -5.57813 h 0.9375 l 0.239583,0.52084 q 0.53125,-0.625 1.567709,-0.625 0.994791,0 1.567708,0.59896 0.578125,0.59375 0.578125,1.66145 v 3.42188 z" />
      <path
         inkscape:connector-curvature="0"
         id="path3202"
         d="m 56.52707,368.81866 0.463542,-1.03645 q 0.583333,0.46354 1.317708,0.46354 0.760417,0 0.760417,-0.54167 0,-0.31771 -0.229167,-0.52083 -0.229167,-0.20313 -0.890625,-0.47917 -1.442708,-0.59896 -1.442708,-1.67708 0,-0.72396 0.552083,-1.125 0.552083,-0.40625 1.411458,-0.40625 0.869792,0 1.635417,0.39062 l -0.375,1.01042 q -0.427083,-0.36458 -1.1875,-0.36458 -0.682292,0 -0.682292,0.54166 0,0.21354 0.223959,0.38542 0.223958,0.17187 0.958333,0.46354 0.734375,0.28646 1.057292,0.69792 0.322916,0.41146 0.322916,0.99479 0,0.77604 -0.578125,1.22396 -0.572916,0.44271 -1.5625,0.44271 -0.557291,0 -0.895833,-0.0937 -0.333333,-0.0885 -0.859375,-0.3698 z" />
    </g>
    <g
       aria-label="Gate Length Turbo"
       style="font-style:normal;font-variant:normal;font-weight:bold;font-stretch:normal;font-size:10.66666698px;line-height:1.25;font-family:'Trebuchet MS';-inkscape-font-specification:'Trebuchet MS, Bold';font-variant-ligatures:normal;font-variant-caps:normal;font-variant-numeric:normal;font-feature-settings:normal;text-align:center;letter-spacing:0px;word-spacing:0px;writing-mode:lr-tb;text-anchor:middle;fill:#000000;fill-opacity:1;stroke:none"
       id="text27378"
       transform="translate(0,2)">
      <path
         d="m 34.630205,14.330571 -0.567709,1.088542 q -0.239583,-0.213542 -0.739583,-0.421875 -0.5,-0.213542 -0.859375,-0.213542 -1.125,0 -1.776042,0.765625 -0.651042,0.760417 -0.651042,2.041667 0,1.21875 0.635417,1.947917 0.640625,0.729166 1.739584,0.729166 0.723958,0 1.192708,-0.395833 v -1.5 h -1.057292 v -1.15625 h 2.411459 v 3.416667 q -0.484375,0.395833 -1.25,0.619791 -0.760417,0.21875 -1.515625,0.21875 -1.640626,0 -2.604167,-1.072916 -0.958334,-1.078125 -0.958334,-2.84375 0,-1.765625 1.046875,-2.869792 1.046875,-1.104167 2.817709,-1.104167 1.255208,0 2.135417,0.75 z"
         id="path27380"
         inkscape:connector-curvature="0" />
      <path
         d="m 39.187496,20.783696 q -0.177083,0.291667 -0.619791,0.479167 -0.4375,0.182292 -0.916667,0.182292 -0.901042,0 -1.416667,-0.447917 -0.515625,-0.453125 -0.515625,-1.28125 0,-0.96875 0.723959,-1.515625 0.729166,-0.546875 2.067708,-0.546875 0.229167,0 0.541667,0.07813 0,-0.984375 -1.244792,-0.984375 -0.734375,0 -1.229167,0.244792 l -0.28125,-1.010417 q 0.671875,-0.322917 1.598959,-0.322917 1.276041,0 1.869792,0.583334 0.59375,0.578125 0.59375,2.197916 v 1.192709 q 0,1.114583 0.447916,1.401041 -0.161458,0.28125 -0.359375,0.34375 -0.197916,0.06771 -0.453125,0.06771 -0.28125,0 -0.505208,-0.208334 -0.223959,-0.208333 -0.302084,-0.453125 z m -0.125,-2.067708 q -0.333333,-0.06771 -0.5,-0.06771 -1.541666,0 -1.541666,1.010416 0,0.75 0.869791,0.75 1.171875,0 1.171875,-1.171875 z"
         id="path27382"
         inkscape:connector-curvature="0" />
      <path
         d="m 41.968746,16.809738 h -0.645833 v -1.046875 h 0.645833 V 14.627446 L 43.27083,14.14828 v 1.614583 h 1.53125 v 1.046875 h -1.53125 v 2.442708 q 0,0.598959 0.1875,0.848959 0.1875,0.244791 0.65625,0.244791 0.46875,0 0.875,-0.255208 v 1.197917 q -0.453125,0.15625 -1.291667,0.15625 -0.833333,0 -1.28125,-0.46875 -0.447917,-0.473959 -0.447917,-1.34375 z"
         id="path27384"
         inkscape:connector-curvature="0" />
      <path
         d="m 50.979164,18.950363 h -3.984376 q 0.03646,0.666667 0.458334,1.036458 0.421875,0.369792 1.135416,0.369792 0.890625,0 1.354167,-0.463542 l 0.505209,0.994792 q -0.687501,0.557292 -2.052084,0.557292 -1.276042,0 -2.020833,-0.744792 -0.739584,-0.75 -0.739584,-2.088542 0,-1.317708 0.8125,-2.135416 0.817709,-0.817709 1.958334,-0.817709 1.213541,0 1.947917,0.723959 0.734375,0.723958 0.734375,1.84375 0,0.239583 -0.109375,0.723958 z m -3.937501,-0.979167 h 2.739584 q -0.135417,-1.223958 -1.354167,-1.223958 -1.114583,0 -1.385417,1.223958 z"
         id="path27386"
         inkscape:connector-curvature="0" />
      <path
         d="M 55.411456,21.340988 V 13.71078 h 1.354166 v 6.427083 h 3.447917 v 1.203125 z"
         id="path27388"
         inkscape:connector-curvature="0" />
      <path
         d="m 66.20833,18.950363 h -3.984376 q 0.03646,0.666667 0.458334,1.036458 0.421875,0.369792 1.135416,0.369792 0.890626,0 1.354167,-0.463542 l 0.505209,0.994792 q -0.6875,0.557292 -2.052084,0.557292 -1.276042,0 -2.020833,-0.744792 -0.739584,-0.75 -0.739584,-2.088542 0,-1.317708 0.8125,-2.135416 0.817709,-0.817709 1.958334,-0.817709 1.213542,0 1.947917,0.723959 0.734375,0.723958 0.734375,1.84375 0,0.239583 -0.109375,0.723958 z m -3.937501,-0.979167 h 2.739584 q -0.135417,-1.223958 -1.354167,-1.223958 -1.114583,0 -1.385417,1.223958 z"
         id="path27390"
         inkscape:connector-curvature="0" />
      <path
         d="M 70.942705,21.340988 V 18.11703 q 0,-0.713542 -0.276042,-1.041667 -0.270833,-0.328125 -0.890625,-0.328125 -0.286459,0 -0.614584,0.161458 -0.322916,0.161459 -0.505208,0.401042 v 4.03125 h -1.302083 v -5.578125 h 0.9375 l 0.239583,0.520833 q 0.53125,-0.625 1.567708,-0.625 0.994792,0 1.567709,0.598959 0.578125,0.59375 0.578125,1.661458 v 3.421875 z"
         id="path27392"
         inkscape:connector-curvature="0" />
      <path
         d="m 73.229164,22.77328 0.822917,-1.015625 q 0.682291,0.625 1.520833,0.625 0.5625,0 0.927083,-0.166667 0.364584,-0.166666 0.364584,-0.458333 0,-0.494792 -0.807292,-0.494792 -0.21875,0 -0.651042,0.05208 -0.432291,0.05208 -0.651041,0.05208 -1.34375,0 -1.34375,-0.963542 0,-0.276042 0.223958,-0.541667 0.223958,-0.265625 0.520833,-0.390625 -0.953125,-0.619791 -0.953125,-1.755208 0,-0.895833 0.65625,-1.479167 0.65625,-0.588541 1.614584,-0.588541 0.75,0 1.255208,0.28125 l 0.510417,-0.59375 0.901041,0.817708 -0.619791,0.453125 q 0.322916,0.489583 0.322916,1.15625 0,0.953125 -0.583333,1.526042 -0.578125,0.567708 -1.463542,0.567708 -0.140625,0 -0.375,-0.02604 l -0.213541,-0.03125 q -0.03646,0 -0.28125,0.114584 -0.239584,0.109375 -0.239584,0.229166 0,0.208334 0.359375,0.208334 0.161459,0 0.541667,-0.07813 0.380208,-0.07813 0.651042,-0.07813 1.901041,0 1.901041,1.526042 0,0.84375 -0.760416,1.322916 -0.760417,0.484375 -1.833334,0.484375 -1.28125,0 -2.317708,-0.755208 z m 1.302083,-5.052084 q 0,0.494792 0.270834,0.796875 0.276041,0.296875 0.739583,0.296875 0.463542,0 0.713542,-0.291666 0.25,-0.291667 0.25,-0.802084 0,-0.421875 -0.270834,-0.713541 -0.265625,-0.291667 -0.692708,-0.291667 -0.447917,0 -0.729167,0.28125 -0.28125,0.28125 -0.28125,0.723958 z"
         id="path27394"
         inkscape:connector-curvature="0" />
      <path
         d="m 79.197915,16.809738 h -0.645833 v -1.046875 h 0.645833 v -1.135417 l 1.302084,-0.479166 v 1.614583 h 1.53125 v 1.046875 h -1.53125 v 2.442708 q 0,0.598959 0.1875,0.848959 0.1875,0.244791 0.65625,0.244791 0.46875,0 0.875,-0.255208 v 1.197917 q -0.453125,0.15625 -1.291667,0.15625 -0.833333,0 -1.28125,-0.46875 -0.447917,-0.473959 -0.447917,-1.34375 z"
         id="path27396"
         inkscape:connector-curvature="0" />
      <path
         d="m 86.838538,21.340988 v -3.4375 q 0,-0.515625 -0.322917,-0.828125 -0.322916,-0.3125 -0.84375,-0.3125 -0.322917,0 -0.651042,0.177083 -0.328125,0.171875 -0.46875,0.395834 v 4.005208 h -1.322916 v -7.65625 l 1.322916,-0.3125 v 2.744792 q 0.505209,-0.458334 1.390625,-0.458334 1.046876,0 1.625001,0.583334 0.578125,0.578125 0.578125,1.661458 v 3.4375 z"
         id="path27398"
         inkscape:connector-curvature="0" />
      <path
         d="m 95.953122,14.913905 v 6.427083 H 94.598956 V 14.913905 H 92.171872 V 13.71078 h 6.317709 v 1.203125 z"
         id="path27400"
         inkscape:connector-curvature="0" />
      <path
         d="m 102.88541,21.346196 v -0.46875 q -0.27604,0.234375 -0.76041,0.401042 -0.48438,0.166667 -0.89063,0.166667 -1.942707,0 -1.942707,-2.0625 v -3.619792 h 1.302087 v 3.520833 q 0,1.072917 0.96354,1.072917 0.44271,0 0.82291,-0.229167 0.38021,-0.229166 0.50521,-0.53125 v -3.833333 h 1.30209 v 5.583333 z"
         id="path27402"
         inkscape:connector-curvature="0" />
      <path
         d="m 108.82812,16.976405 q -0.34896,-0.229167 -0.76562,-0.229167 -0.45313,0 -0.8073,0.411458 -0.34895,0.411459 -0.34895,1.005209 v 3.177083 h -1.30209 v -5.578125 h 1.30209 v 0.510417 q 0.54687,-0.614584 1.45312,-0.614584 0.66667,0 1.02083,0.203125 z"
         id="path27404"
         inkscape:connector-curvature="0" />
      <path
         d="m 111.08854,21.033696 -0.29167,0.411459 h -0.73437 v -7.760417 l 1.30208,-0.3125 v 2.604167 q 0.52083,-0.317709 1.13542,-0.317709 1.22395,0 1.97395,0.776042 0.75,0.770833 0.75,1.979167 0,1.401041 -0.7552,2.21875 -0.75521,0.8125 -2.04688,0.8125 -0.77604,0 -1.33333,-0.411459 z m 0.27604,-3.942708 v 2.911458 q 0.28646,0.338542 0.77604,0.338542 0.94271,0 1.33333,-0.447917 0.39584,-0.447916 0.39584,-1.432291 0,-1.697917 -1.625,-1.697917 -0.57813,0 -0.88021,0.328125 z"
         id="path27406"
         inkscape:connector-curvature="0" />
      <path
         d="m 116.01042,18.538905 q 0,-1.276042 0.73437,-2.078125 0.73958,-0.802084 1.94792,-0.802084 1.27083,0 1.97396,0.770834 0.70312,0.770833 0.70312,2.109375 0,1.333333 -0.71875,2.119791 -0.71354,0.786459 -1.95833,0.786459 -1.27084,0 -1.97917,-0.791667 -0.70312,-0.796875 -0.70312,-2.114583 z m 1.35416,0 q 0,1.84375 1.32813,1.84375 0.60937,0 0.96354,-0.479167 0.35937,-0.479167 0.35937,-1.364583 0,-1.817709 -1.32291,-1.817709 -0.60938,0 -0.96875,0.479167 -0.35938,0.479167 -0.35938,1.338542 z"
         id="path27408"
         inkscape:connector-curvature="0" />
    </g>
  </g>
</svg>
