<?xml version="1.0" encoding="UTF-8" standalone="no"?>
<!-- Created with Inkscape (http://www.inkscape.org/) -->

<svg
   xmlns:dc="http://purl.org/dc/elements/1.1/"
   xmlns:cc="http://creativecommons.org/ns#"
   xmlns:rdf="http://www.w3.org/1999/02/22-rdf-syntax-ns#"
   xmlns:svg="http://www.w3.org/2000/svg"
   xmlns="http://www.w3.org/2000/svg"
   xmlns:sodipodi="http://sodipodi.sourceforge.net/DTD/sodipodi-0.dtd"
   xmlns:inkscape="http://www.inkscape.org/namespaces/inkscape"
   width="150"
   height="380"
   viewBox="0 0 150 380"
   version="1.1"
   id="svg8"
   inkscape:version="0.92.4 (5da689c313, 2019-01-14)"
   sodipodi:docname="GateLength.svg"
   style="enable-background:new">
  <defs
     id="defs2" />
  <sodipodi:namedview
     id="base"
     pagecolor="#ffffff"
     bordercolor="#666666"
     borderopacity="1.0"
     inkscape:pageopacity="0.0"
     inkscape:pageshadow="2"
     inkscape:zoom="1.6394402"
     inkscape:cx="-37.540334"
     inkscape:cy="-54.45033"
     inkscape:document-units="px"
     inkscape:current-layer="layer3"
     showgrid="false"
     units="px"
     inkscape:snap-bbox="false"
     inkscape:snap-page="true"
     inkscape:bbox-nodes="true"
     inkscape:snap-bbox-edge-midpoints="true"
     inkscape:window-width="1257"
     inkscape:window-height="834"
     inkscape:window-x="158"
     inkscape:window-y="125"
     inkscape:window-maximized="0"
     inkscape:measure-start="0,0"
     inkscape:measure-end="0,0"
     inkscape:snap-text-baseline="true"
     inkscape:snap-nodes="false"
     inkscape:snap-others="false"
     inkscape:snap-grids="false"
     showguides="true"
     inkscape:guide-bbox="true"
     inkscape:snap-to-guides="false"
     inkscape:object-nodes="false"
     inkscape:snap-global="false">
    <inkscape:grid
       type="xygrid"
       id="grid6570"
       units="px"
       empspacing="5" />
    <sodipodi:guide
       position="38.714733,89.341691"
       orientation="0,1"
       id="guide9112"
       inkscape:locked="false" />
    <sodipodi:guide
       position="20.250783,179.27899"
       orientation="1,0"
       id="guide9114"
       inkscape:locked="false" />
    <sodipodi:guide
       position="68.495297,90.532914"
       orientation="1,0"
       id="guide9116"
       inkscape:locked="false" />
    <sodipodi:guide
       position="60.386466,358.04905"
       orientation="0,1"
       id="guide2833"
       inkscape:locked="false" />
  </sodipodi:namedview>
  <metadata
     id="metadata5">
    <rdf:RDF>
      <cc:Work
         rdf:about="">
        <dc:format>image/svg+xml</dc:format>
        <dc:type
           rdf:resource="http://purl.org/dc/dcmitype/StillImage" />
        <dc:title />
      </cc:Work>
    </rdf:RDF>
  </metadata>
  <g
     inkscape:groupmode="layer"
     id="layer10"
     inkscape:label="Layer 1">
    <rect
       style="opacity:1;fill:#e6e6e6;fill-opacity:1;fill-rule:evenodd;stroke:#000000;stroke-width:0.88536358;stroke-miterlimit:4;stroke-dasharray:0, 9.73899884;stroke-dashoffset:0;stroke-opacity:0.00485439"
       id="rect5174"
       width="149.11464"
       height="388.27185"
       x="0.44268179"
       y="-8.714509"
       rx="0"
       ry="0" />
  </g>
  <g
     inkscape:groupmode="layer"
     id="layer3"
     inkscape:label="test"
     style="display:inline">
    <g
       transform="translate(-10.313929,7.668531)"
       id="g3204"
       style="font-style:normal;font-variant:normal;font-weight:bold;font-stretch:normal;font-size:10.66666698px;line-height:1.25;font-family:'Trebuchet MS';-inkscape-font-specification:'Trebuchet MS, Bold';font-variant-ligatures:normal;font-variant-caps:normal;font-variant-numeric:normal;font-feature-settings:normal;text-align:center;letter-spacing:0px;word-spacing:0px;writing-mode:lr-tb;text-anchor:middle;display:inline;opacity:0.2681564;fill:#000000;fill-opacity:1;stroke:none;enable-background:new"
       aria-label="Alikins">
      <path
         inkscape:connector-curvature="0"
         id="path3190"
         d="m 32.985402,369.17804 -0.557292,-1.54688 h -2.614583 l -0.53125,1.54688 h -1.505208 l 3.041666,-7.73438 h 0.59375 l 3.067709,7.73438 z m -1.869792,-5.40104 -0.916666,2.81771 h 1.833333 z" />
      <path
         inkscape:connector-curvature="0"
         id="path3192"
         d="m 35.42811,361.52179 1.302084,-0.3125 v 6.27083 q 0,1.03125 0.614583,1.22917 -0.302083,0.57292 -1.03125,0.57292 -0.885417,0 -0.885417,-1.22917 z" />
      <path
         inkscape:connector-curvature="0"
         id="path3194"
         d="m 39.370819,361.43846 q 0.3125,0 0.53125,0.22395 0.223959,0.21875 0.223959,0.53125 0,0.3125 -0.223959,0.53646 -0.21875,0.21875 -0.53125,0.21875 -0.3125,0 -0.536458,-0.21875 -0.21875,-0.22396 -0.21875,-0.53646 0,-0.3125 0.21875,-0.53125 0.223958,-0.22395 0.536458,-0.22395 z m -0.671875,7.73958 v -4.51042 h -0.713541 v -1.06771 h 2.03125 v 5.57813 z" />
      <path
         inkscape:connector-curvature="0"
         id="path3196"
         d="m 45.105194,369.17804 -1.640625,-2.52604 -0.625,0.66146 v 1.86458 h -1.302083 v -7.65625 l 1.302083,-0.3125 v 4.53125 l 1.859375,-2.14063 h 1.567709 l -1.885417,2.11459 2.270833,3.46354 z" />
      <path
         inkscape:connector-curvature="0"
         id="path3198"
         d="m 48.412485,361.43846 q 0.3125,0 0.53125,0.22395 0.223959,0.21875 0.223959,0.53125 0,0.3125 -0.223959,0.53646 -0.21875,0.21875 -0.53125,0.21875 -0.3125,0 -0.536458,-0.21875 -0.21875,-0.22396 -0.21875,-0.53646 0,-0.3125 0.21875,-0.53125 0.223958,-0.22395 0.536458,-0.22395 z m -0.671875,7.73958 v -4.51042 h -0.713541 v -1.06771 h 2.03125 v 5.57813 z" />
      <path
         inkscape:connector-curvature="0"
         id="path3200"
         d="m 54.167694,369.17804 v -3.22396 q 0,-0.71354 -0.276042,-1.04167 -0.270833,-0.32812 -0.890625,-0.32812 -0.286458,0 -0.614583,0.16146 -0.322917,0.16146 -0.505209,0.40104 v 4.03125 h -1.302083 v -5.57813 h 0.9375 l 0.239583,0.52084 q 0.53125,-0.625 1.567709,-0.625 0.994791,0 1.567708,0.59896 0.578125,0.59375 0.578125,1.66145 v 3.42188 z" />
      <path
         inkscape:connector-curvature="0"
         id="path3202"
         d="m 56.52707,368.81866 0.463542,-1.03645 q 0.583333,0.46354 1.317708,0.46354 0.760417,0 0.760417,-0.54167 0,-0.31771 -0.229167,-0.52083 -0.229167,-0.20313 -0.890625,-0.47917 -1.442708,-0.59896 -1.442708,-1.67708 0,-0.72396 0.552083,-1.125 0.552083,-0.40625 1.411458,-0.40625 0.869792,0 1.635417,0.39062 l -0.375,1.01042 q -0.427083,-0.36458 -1.1875,-0.36458 -0.682292,0 -0.682292,0.54166 0,0.21354 0.223959,0.38542 0.223958,0.17187 0.958333,0.46354 0.734375,0.28646 1.057292,0.69792 0.322916,0.41146 0.322916,0.99479 0,0.77604 -0.578125,1.22396 -0.572916,0.44271 -1.5625,0.44271 -0.557291,0 -0.895833,-0.0937 -0.333333,-0.0885 -0.859375,-0.3698 z" />
    </g>
  </g>
  <g
     inkscape:groupmode="layer"
     id="layer9"
     inkscape:label="biggertitle">
    <g
       aria-label="Gate Length"
       style="font-style:normal;font-variant:normal;font-weight:bold;font-stretch:normal;font-size:16px;line-height:1.25;font-family:'Trebuchet MS';-inkscape-font-specification:'Trebuchet MS, Bold';font-variant-ligatures:normal;font-variant-caps:normal;font-variant-numeric:normal;font-feature-settings:normal;text-align:center;letter-spacing:0px;word-spacing:0px;writing-mode:lr-tb;text-anchor:middle;fill:#000000;fill-opacity:1;stroke:none"
       id="text3602"
       transform="translate(0,-8)">
      <path
         d="m 39.363281,18.914684 -0.851562,1.632813 q -0.359375,-0.320313 -1.109375,-0.632813 -0.75,-0.320312 -1.289063,-0.320312 -1.6875,0 -2.664062,1.148437 -0.976563,1.140625 -0.976563,3.0625 0,1.828125 0.953125,2.921875 0.960938,1.09375 2.609375,1.09375 1.085938,0 1.789063,-0.59375 v -2.25 h -1.585938 v -1.734375 h 3.617188 v 5.125 q -0.726563,0.59375 -1.875,0.929688 -1.140625,0.328125 -2.273438,0.328125 -2.460937,0 -3.90625,-1.609375 -1.4375,-1.617188 -1.4375,-4.265625 0,-2.648438 1.570313,-4.304688 1.570312,-1.65625 4.226562,-1.65625 1.882813,0 3.203125,1.125 z"
         id="path3604"
         inkscape:connector-curvature="0" />
      <path
         d="m 46.199219,28.594372 q -0.265625,0.4375 -0.929688,0.71875 -0.65625,0.273437 -1.375,0.273437 -1.351562,0 -2.125,-0.671875 -0.773437,-0.679687 -0.773437,-1.921875 0,-1.453125 1.085937,-2.273437 1.09375,-0.820313 3.101563,-0.820313 0.34375,0 0.8125,0.117188 0,-1.476563 -1.867188,-1.476563 -1.101562,0 -1.84375,0.367188 l -0.421875,-1.515625 q 1.007813,-0.484375 2.398438,-0.484375 1.914062,0 2.804687,0.875 0.890625,0.867187 0.890625,3.296875 v 1.789062 q 0,1.671875 0.671875,2.101563 -0.242187,0.421875 -0.539062,0.515625 -0.296875,0.101562 -0.679688,0.101562 -0.421875,0 -0.757812,-0.3125 -0.335938,-0.3125 -0.453125,-0.679687 z m -0.1875,-3.101563 q -0.5,-0.101562 -0.75,-0.101562 -2.3125,0 -2.3125,1.515625 0,1.125 1.304687,1.125 1.757813,0 1.757813,-1.757813 z"
         id="path3606"
         inkscape:connector-curvature="0" />
      <path
         d="m 50.371094,22.633434 h -0.96875 v -1.570312 h 0.96875 v -1.703125 l 1.953125,-0.71875 v 2.421875 h 2.296875 v 1.570312 h -2.296875 v 3.664063 q 0,0.898437 0.28125,1.273437 0.28125,0.367188 0.984375,0.367188 0.703125,0 1.3125,-0.382813 v 1.796875 q -0.679688,0.234375 -1.9375,0.234375 -1.25,0 -1.921875,-0.703125 -0.671875,-0.710937 -0.671875,-2.015625 z"
         id="path3608"
         inkscape:connector-curvature="0" />
      <path
         d="m 63.886719,25.844372 h -5.976563 q 0.05469,1 0.6875,1.554687 0.632813,0.554688 1.703125,0.554688 1.335938,0 2.03125,-0.695313 l 0.757813,1.492188 q -1.03125,0.835937 -3.078125,0.835937 -1.914063,0 -3.03125,-1.117187 -1.109375,-1.125 -1.109375,-3.132813 0,-1.976562 1.21875,-3.203125 1.226562,-1.226562 2.9375,-1.226562 1.820312,0 2.921875,1.085937 1.101562,1.085938 1.101562,2.765625 0,0.359375 -0.164062,1.085938 z m -5.90625,-1.46875 h 4.109375 q -0.203125,-1.835938 -2.03125,-1.835938 -1.671875,0 -2.078125,1.835938 z"
         id="path3610"
         inkscape:connector-curvature="0" />
      <path
         d="M 70.535156,29.430309 V 17.984997 h 2.03125 v 9.640625 h 5.171875 v 1.804687 z"
         id="path3612"
         inkscape:connector-curvature="0" />
      <path
         d="m 86.730469,25.844372 h -5.976563 q 0.05469,1 0.6875,1.554687 0.632813,0.554688 1.703125,0.554688 1.335938,0 2.03125,-0.695313 l 0.757813,1.492188 q -1.03125,0.835937 -3.078125,0.835937 -1.914063,0 -3.03125,-1.117187 -1.109375,-1.125 -1.109375,-3.132813 0,-1.976562 1.21875,-3.203125 1.226562,-1.226562 2.9375,-1.226562 1.820312,0 2.921875,1.085937 1.101562,1.085938 1.101562,2.765625 0,0.359375 -0.164062,1.085938 z m -5.90625,-1.46875 h 4.109375 q -0.203125,-1.835938 -2.03125,-1.835938 -1.671875,0 -2.078125,1.835938 z"
         id="path3614"
         inkscape:connector-curvature="0" />
      <path
         d="m 93.832031,29.430309 v -4.835937 q 0,-1.070313 -0.414062,-1.5625 -0.40625,-0.492188 -1.335938,-0.492188 -0.429687,0 -0.921875,0.242188 -0.484375,0.242187 -0.757812,0.601562 v 6.046875 h -1.953125 v -8.367187 h 1.40625 l 0.359375,0.78125 q 0.796875,-0.9375 2.351562,-0.9375 1.492188,0 2.351563,0.898437 0.867187,0.890625 0.867187,2.492188 v 5.132812 z"
         id="path3616"
         inkscape:connector-curvature="0" />
      <path
         d="m 97.261719,31.578747 1.234375,-1.523438 q 1.023437,0.9375 2.281246,0.9375 0.84375,0 1.39063,-0.25 0.54687,-0.25 0.54687,-0.6875 0,-0.742187 -1.21093,-0.742187 -0.32813,0 -0.97657,0.07813 -0.648434,0.07813 -0.976559,0.07813 -2.015625,0 -2.015625,-1.445313 0,-0.414062 0.335938,-0.8125 0.335937,-0.398437 0.78125,-0.585937 -1.429688,-0.929688 -1.429688,-2.632813 0,-1.34375 0.984375,-2.21875 0.984375,-0.882812 2.421879,-0.882812 1.125,0 1.88281,0.421875 l 0.76562,-0.890625 1.35157,1.226562 -0.92969,0.679688 q 0.48437,0.734375 0.48437,1.734375 0,1.429687 -0.875,2.289062 -0.86718,0.851563 -2.19531,0.851563 -0.21094,0 -0.5625,-0.03906 l -0.32031,-0.04687 q -0.0547,0 -0.421876,0.171875 -0.359375,0.164063 -0.359375,0.34375 0,0.3125 0.539062,0.3125 0.242189,0 0.812499,-0.117187 0.57031,-0.117188 0.97656,-0.117188 2.85157,0 2.85157,2.289063 0,1.265625 -1.14063,1.984375 -1.14062,0.726562 -2.75,0.726562 -1.921874,0 -3.476561,-1.132812 z m 1.953125,-7.578125 q 0,0.742187 0.40625,1.195312 0.414066,0.445313 1.109376,0.445313 0.69531,0 1.07031,-0.4375 0.375,-0.4375 0.375,-1.203125 0,-0.632813 -0.40625,-1.070313 -0.39844,-0.4375 -1.03906,-0.4375 -0.67188,0 -1.093751,0.421875 -0.421875,0.421875 -0.421875,1.085938 z"
         id="path3618"
         inkscape:connector-curvature="0" />
      <path
         d="m 106.21484,22.633434 h -0.96875 v -1.570312 h 0.96875 v -1.703125 l 1.95313,-0.71875 v 2.421875 h 2.29687 v 1.570312 h -2.29687 v 3.664063 q 0,0.898437 0.28125,1.273437 0.28125,0.367188 0.98437,0.367188 0.70313,0 1.3125,-0.382813 v 1.796875 q -0.67968,0.234375 -1.9375,0.234375 -1.25,0 -1.92187,-0.703125 -0.67188,-0.710937 -0.67188,-2.015625 z"
         id="path3620"
         inkscape:connector-curvature="0" />
      <path
         d="m 117.67578,29.430309 v -5.15625 q 0,-0.773437 -0.48437,-1.242187 -0.48438,-0.46875 -1.26563,-0.46875 -0.48437,0 -0.97656,0.265625 -0.49219,0.257812 -0.70313,0.59375 v 6.007812 h -1.98437 V 17.945934 l 1.98437,-0.46875 v 4.117188 q 0.75782,-0.6875 2.08594,-0.6875 1.57031,0 2.4375,0.875 0.86719,0.867187 0.86719,2.492187 v 5.15625 z"
         id="path3622"
         inkscape:connector-curvature="0" />
    </g>
  </g>
</svg>
