<?xml version="1.0" encoding="UTF-8" standalone="no"?>
<!-- Created with Inkscape (http://www.inkscape.org/) -->

<svg
   xmlns:dc="http://purl.org/dc/elements/1.1/"
   xmlns:cc="http://creativecommons.org/ns#"
   xmlns:rdf="http://www.w3.org/1999/02/22-rdf-syntax-ns#"
   xmlns:svg="http://www.w3.org/2000/svg"
   xmlns="http://www.w3.org/2000/svg"
   xmlns:sodipodi="http://sodipodi.sourceforge.net/DTD/sodipodi-0.dtd"
   xmlns:inkscape="http://www.inkscape.org/namespaces/inkscape"
   width="100"
   height="380"
   viewBox="0 0 26.458335 100.54167"
   version="1.1"
   id="svg8"
   inkscape:version="0.92.2 5c3e80d, 2017-08-06"
   sodipodi:docname="IdleSwitch.svg"
   style="enable-background:new">
  <defs
     id="defs2">
    <clipPath
       id="clip89">
      <rect
         id="rect4864"
         height="19"
         width="18"
         x="0"
         y="0" />
    </clipPath>
    <clipPath
       id="clip90">
      <path
         id="path4861"
         d="m 0.898438,0.128906 h 16.25 v 17.882813 h -16.25 z m 0,0"
         inkscape:connector-curvature="0" />
    </clipPath>
    <mask
       id="mask44">
      <g
         transform="matrix(0.26458333,0,0,0.26458333,89.358789,128.57765)"
         id="g4858"
         style="filter:url(#alpha)">
        <rect
           id="rect4856"
           style="fill:#000000;fill-opacity:0.14999402;stroke:none"
           height="3351.5"
           width="3052.8701"
           y="0"
           x="0" />
      </g>
    </mask>
    <filter
       height="1"
       width="1"
       y="0"
       x="0"
       filterUnits="objectBoundingBox"
       id="alpha">
      <feColorMatrix
         id="feColorMatrix4149"
         values="0 0 0 0 1 0 0 0 0 1 0 0 0 0 1 0 0 0 1 0"
         in="SourceGraphic"
         type="matrix" />
    </filter>
    <clipPath
       id="clipPath17821">
      <rect
         id="rect17819"
         height="19"
         width="18"
         x="0"
         y="0" />
    </clipPath>
    <clipPath
       id="clipPath17825">
      <path
         id="path17823"
         d="m 0.898438,0.128906 h 16.25 v 17.882813 h -16.25 z m 0,0"
         inkscape:connector-curvature="0" />
    </clipPath>
    <clipPath
       id="clip87">
      <rect
         id="rect4848"
         height="26"
         width="24"
         x="0"
         y="0" />
    </clipPath>
    <clipPath
       id="clip88">
      <path
         id="path4845"
         d="m 0.683594,0.921875 h 22.679687 v 24.9375 H 0.683594 Z m 0,0"
         inkscape:connector-curvature="0" />
    </clipPath>
    <mask
       id="mask43">
      <g
         transform="matrix(0.26458333,0,0,0.26458333,89.358789,128.57765)"
         id="g4842"
         style="filter:url(#alpha)">
        <rect
           id="rect4840"
           style="fill:#000000;fill-opacity:0.14999402;stroke:none"
           height="3351.5"
           width="3052.8701"
           y="0"
           x="0" />
      </g>
    </mask>
    <filter
       height="1"
       width="1"
       y="0"
       x="0"
       filterUnits="objectBoundingBox"
       id="filter17836">
      <feColorMatrix
         id="feColorMatrix17834"
         values="0 0 0 0 1 0 0 0 0 1 0 0 0 0 1 0 0 0 1 0"
         in="SourceGraphic"
         type="matrix" />
    </filter>
    <clipPath
       id="clipPath17840">
      <rect
         id="rect17838"
         height="26"
         width="24"
         x="0"
         y="0" />
    </clipPath>
    <clipPath
       id="clipPath17844">
      <path
         id="path17842"
         d="m 0.683594,0.921875 h 22.679687 v 24.9375 H 0.683594 Z m 0,0"
         inkscape:connector-curvature="0" />
    </clipPath>
    <clipPath
       id="clip95">
      <rect
         id="rect4912"
         height="18"
         width="18"
         x="0"
         y="0" />
    </clipPath>
    <clipPath
       id="clip96">
      <path
         id="path4909"
         d="M 0.140625,0.140625 H 17.199219 V 17.199219 H 0.140625 Z m 0,0"
         inkscape:connector-curvature="0" />
    </clipPath>
    <mask
       id="mask47">
      <g
         transform="matrix(0.26458333,0,0,0.26458333,88.611154,119.19859)"
         id="g4906"
         style="filter:url(#alpha-3)">
        <rect
           id="rect4904"
           style="fill:#000000;fill-opacity:0.33000201;stroke:none"
           height="3351.5"
           width="3052.8701"
           y="0"
           x="0" />
      </g>
    </mask>
    <filter
       height="1"
       width="1"
       y="0"
       x="0"
       filterUnits="objectBoundingBox"
       id="alpha-3">
      <feColorMatrix
         id="feColorMatrix4149-6"
         values="0 0 0 0 1 0 0 0 0 1 0 0 0 0 1 0 0 0 1 0"
         in="SourceGraphic"
         type="matrix" />
    </filter>
    <clipPath
       id="clipPath18541">
      <rect
         id="rect18539"
         height="18"
         width="18"
         x="0"
         y="0" />
    </clipPath>
    <clipPath
       id="clipPath18545">
      <path
         id="path18543"
         d="M 0.140625,0.140625 H 17.199219 V 17.199219 H 0.140625 Z m 0,0"
         inkscape:connector-curvature="0" />
    </clipPath>
    <clipPath
       id="clip93">
      <rect
         id="rect4896"
         height="24"
         width="22"
         x="0"
         y="0" />
    </clipPath>
    <clipPath
       id="clip94">
      <path
         id="path4893"
         d="M 0.0390625,0.0390625 H 21.300781 V 23.421875 H 0.0390625 Z m 0,0"
         inkscape:connector-curvature="0" />
    </clipPath>
    <mask
       id="mask46">
      <g
         transform="matrix(0.26458333,0,0,0.26458333,88.611154,119.19859)"
         id="g4890"
         style="filter:url(#alpha-3)">
        <rect
           id="rect4888"
           style="fill:#000000;fill-opacity:0.14999402;stroke:none"
           height="3351.5"
           width="3052.8701"
           y="0"
           x="0" />
      </g>
    </mask>
    <filter
       height="1"
       width="1"
       y="0"
       x="0"
       filterUnits="objectBoundingBox"
       id="filter18556">
      <feColorMatrix
         id="feColorMatrix18554"
         values="0 0 0 0 1 0 0 0 0 1 0 0 0 0 1 0 0 0 1 0"
         in="SourceGraphic"
         type="matrix" />
    </filter>
    <clipPath
       id="clipPath18560">
      <rect
         id="rect18558"
         height="24"
         width="22"
         x="0"
         y="0" />
    </clipPath>
    <clipPath
       id="clipPath18564">
      <path
         id="path18562"
         d="M 0.0390625,0.0390625 H 21.300781 V 23.421875 H 0.0390625 Z m 0,0"
         inkscape:connector-curvature="0" />
    </clipPath>
    <clipPath
       id="clip91">
      <rect
         id="rect4880"
         height="32"
         width="29"
         x="0"
         y="0" />
    </clipPath>
    <clipPath
       id="clip92">
      <path
         id="path4877"
         d="M 0.507812,0.5 H 28.855469 V 31.679688 H 0.507812 Z m 0,0"
         inkscape:connector-curvature="0" />
    </clipPath>
    <mask
       id="mask45">
      <g
         transform="matrix(0.26458333,0,0,0.26458333,88.611154,119.19859)"
         id="g4874"
         style="filter:url(#alpha-3)">
        <rect
           id="rect4872"
           style="fill:#000000;fill-opacity:0.14999402;stroke:none"
           height="3351.5"
           width="3052.8701"
           y="0"
           x="0" />
      </g>
    </mask>
    <filter
       height="1"
       width="1"
       y="0"
       x="0"
       filterUnits="objectBoundingBox"
       id="filter18575">
      <feColorMatrix
         id="feColorMatrix18573"
         values="0 0 0 0 1 0 0 0 0 1 0 0 0 0 1 0 0 0 1 0"
         in="SourceGraphic"
         type="matrix" />
    </filter>
    <clipPath
       id="clipPath18579">
      <rect
         id="rect18577"
         height="32"
         width="29"
         x="0"
         y="0" />
    </clipPath>
    <clipPath
       id="clipPath18583">
      <path
         id="path18581"
         d="M 0.507812,0.5 H 28.855469 V 31.679688 H 0.507812 Z m 0,0"
         inkscape:connector-curvature="0" />
    </clipPath>
    <clipPath
       id="clip444">
      <path
         inkscape:connector-curvature="0"
         id="path24586"
         d="m 1201.582,338.19922 h 18 v 18 h -18 z m 0,0" />
    </clipPath>
    <clipPath
       id="clip12">
      <path
         inkscape:connector-curvature="0"
         id="path28860"
         d="m 143,129.75 h 3 V 158 h -3 z m 0,0" />
    </clipPath>
    <clipPath
       id="clip11">
      <path
         inkscape:connector-curvature="0"
         id="path28857"
         d="m 117.39453,129.75 h 54 v 54.00391 h -54 z m 0,0" />
    </clipPath>
    <clipPath
       id="clip150">
      <path
         inkscape:connector-curvature="0"
         id="path29465"
         d="m 176,208.92578 h 2 V 228 h -2 z m 0,0" />
    </clipPath>
    <clipPath
       id="clip149">
      <path
         inkscape:connector-curvature="0"
         id="path29462"
         d="m 159.27734,208.92578 h 36 v 36 h -36 z m 0,0" />
    </clipPath>
    <clipPath
       id="clip142">
      <path
         inkscape:connector-curvature="0"
         id="path29320"
         d="m 110,208.92578 h 3 V 228 h -3 z m 0,0" />
    </clipPath>
    <clipPath
       id="clip141">
      <path
         inkscape:connector-curvature="0"
         id="path29317"
         d="m 93.511719,208.92578 h 36.000001 v 36 H 93.511719 Z m 0,0" />
    </clipPath>
  </defs>
  <sodipodi:namedview
     id="base"
     pagecolor="#ffffff"
     bordercolor="#666666"
     borderopacity="1.0"
     inkscape:pageopacity="0.0"
     inkscape:pageshadow="2"
     inkscape:zoom="5.2133052"
     inkscape:cx="41.71443"
     inkscape:cy="-3.9598391"
     inkscape:document-units="px"
     inkscape:current-layer="layer1"
     showgrid="true"
     units="px"
     inkscape:snap-bbox="false"
     inkscape:snap-page="false"
     inkscape:bbox-nodes="true"
     inkscape:snap-bbox-edge-midpoints="true"
     inkscape:window-width="1440"
     inkscape:window-height="856"
     inkscape:window-x="0"
     inkscape:window-y="0"
     inkscape:window-maximized="0"
     inkscape:measure-start="0,0"
     inkscape:measure-end="0,0"
     inkscape:snap-text-baseline="true"
     inkscape:snap-nodes="false"
     inkscape:snap-others="false"
     inkscape:snap-grids="false"
     showguides="true"
     inkscape:guide-bbox="true"
     inkscape:snap-to-guides="false"
     inkscape:object-nodes="false">
    <inkscape:grid
       type="xygrid"
       id="grid6570"
       units="px"
       empspacing="5" />
    <sodipodi:guide
       position="9.2604171,87.312503"
       orientation="1,0"
       id="guide6572"
       inkscape:locked="false" />
    <sodipodi:guide
       position="2.6458335,79.375003"
       orientation="0,1"
       id="guide6574"
       inkscape:locked="false" />
    <sodipodi:guide
       position="1.3229168,88.63542"
       orientation="0,1"
       id="guide10608"
       inkscape:locked="false" />
    <sodipodi:guide
       position="15.855754,83.629883"
       orientation="1,0"
       id="guide10677"
       inkscape:locked="false" />
  </sodipodi:namedview>
  <metadata
     id="metadata5">
    <rdf:RDF>
      <cc:Work
         rdf:about="">
        <dc:format>image/svg+xml</dc:format>
        <dc:type
           rdf:resource="http://purl.org/dc/dcmitype/StillImage" />
        <dc:title></dc:title>
      </cc:Work>
    </rdf:RDF>
  </metadata>
  <g
     inkscape:label="Layer 1"
     inkscape:groupmode="layer"
     id="layer1"
     transform="translate(0,-196.45832)"
     style="opacity:0.81999966">
    <path
       style="opacity:1;vector-effect:none;fill:#f0f0f0;fill-opacity:1;fill-rule:evenodd;stroke:none;stroke-width:0.62019652;stroke-linecap:butt;stroke-linejoin:round;stroke-miterlimit:4;stroke-dasharray:none;stroke-dashoffset:0;stroke-opacity:1;paint-order:normal"
       d="M 0,196.45831 H 38.767237 V 296.99999 H 0 Z"
       id="rect817"
       inkscape:connector-curvature="0" />
    <rect
       style="fill:#00cd00;fill-opacity:0.36097562;stroke:#000000;stroke-width:0.23717435;stroke-miterlimit:4;stroke-dasharray:0, 2.60891765;stroke-dashoffset:0;stroke-opacity:0.00485439"
       id="rect4596"
       width="7.4053926"
       height="93.415924"
       x="8.0308809"
       y="202.25598" />
    <rect
       style="fill:#000000;fill-opacity:0.10243901;stroke:#000000;stroke-width:0.2637769;stroke-miterlimit:4;stroke-dasharray:0, 2.90154591;stroke-dashoffset:0;stroke-opacity:0"
       id="rect4598"
       width="6.5838552"
       height="92.409401"
       x="1.1992139"
       y="202.7765" />
    <text
       xml:space="preserve"
       style="font-style:normal;font-weight:normal;font-size:10.58333302px;line-height:1.25;font-family:sans-serif;letter-spacing:0px;word-spacing:0px;fill:#000000;fill-opacity:1;stroke:none;stroke-width:0.26458332"
       x="2.0959258"
       y="199.32983"
       id="text4602"><tspan
         sodipodi:role="line"
         id="tspan4600"
         x="2.0959258"
         y="208.6936"
         style="stroke-width:0.26458332" /></text>
    <g
       aria-label="IdleSwitch"
       transform="matrix(0.78751485,0,0,1.2698173,-0.48904939,0)"
       style="font-style:normal;font-variant:normal;font-weight:normal;font-stretch:normal;font-size:4.66420269px;line-height:1.25;font-family:'Trebuchet MS';-inkscape-font-specification:'Trebuchet MS, Normal';font-variant-ligatures:normal;font-variant-caps:normal;font-variant-numeric:normal;font-feature-settings:normal;text-align:start;letter-spacing:0px;word-spacing:0px;writing-mode:lr-tb;text-anchor:start;fill:#000000;fill-opacity:1;stroke:none;stroke-width:0.11660507"
       id="text2060">
      <path
         d="m 1.5688223,158.67058 v -3.33646 h 0.4554885 v 3.33646 z"
         style="stroke-width:0.11660507"
         id="path2064"
         inkscape:connector-curvature="0" />
      <path
         d="m 4.3040309,158.6683 v -0.17992 q -0.2254668,0.22547 -0.6559035,0.22547 -0.4577659,0 -0.7424463,-0.32795 -0.2846803,-0.32795 -0.2846803,-0.87454 0,-0.54886 0.3279517,-0.93603 0.3279518,-0.38944 0.7811629,-0.38944 0.3780555,0 0.5739155,0.17764 v -1.13189 h 0.4327142 v 3.43666 z m 0,-1.87206 q -0.1639758,-0.24596 -0.4486562,-0.24596 -0.3484487,0 -0.5648058,0.25963 -0.2140796,0.25963 -0.2140796,0.66046 0,0.88137 0.8016599,0.88137 0.1024849,0 0.2459638,-0.0638 0.1434789,-0.066 0.1799179,-0.13893 z"
         style="stroke-width:0.11660507"
         id="path2066"
         inkscape:connector-curvature="0" />
      <path
         d="m 5.3880936,157.98051 v -2.74887 h 0.4327141 v 2.67599 q 0,0.19586 0.1115947,0.30974 0.1138722,0.11159 0.2960676,0.11159 v 0.38717 q -0.8403764,0 -0.8403764,-0.73562 z"
         style="stroke-width:0.11660507"
         id="path2068"
         inkscape:connector-curvature="0" />
      <path
         d="M 8.7837606,157.49314 H 7.0255748 q 0,0.42816 0.2345766,0.65818 0.2072473,0.20042 0.5329216,0.20042 0.3712232,0 0.6194644,-0.21636 l 0.1821955,0.31201 q -0.1002075,0.10021 -0.3074548,0.17308 -0.2596285,0.0957 -0.5784705,0.0957 -0.4600434,0 -0.7811628,-0.31201 -0.3575585,-0.3439 -0.3575585,-0.92464 0,-0.60353 0.3666683,-0.96792 0.3279517,-0.32567 0.7766079,-0.32567 0.5215344,0 0.817602,0.29379 0.2869577,0.2824 0.2869577,0.74928 0,0.14348 -0.034162,0.26418 z m -1.0499011,-0.94286 q -0.2892352,0 -0.4850953,0.18675 -0.1867503,0.17764 -0.2118022,0.44182 h 1.3505236 q 0,-0.2619 -0.1639759,-0.43727 -0.179918,-0.1913 -0.4896502,-0.1913 z"
         style="stroke-width:0.11660507"
         id="path2070"
         inkscape:connector-curvature="0" />
      <path
         d="m 9.1549837,158.51799 0.1662533,-0.41905 q 0.1275368,0.0934 0.3165645,0.15714 0.1913052,0.0615 0.3416164,0.0615 0.2664611,0 0.4281591,-0.14575 0.161699,-0.14576 0.161699,-0.37123 0,-0.16853 -0.0911,-0.312 -0.08882,-0.14576 -0.450934,-0.31657 l -0.268738,-0.12526 q -0.3416164,-0.15942 -0.478263,-0.37805 -0.1343691,-0.21864 -0.1343691,-0.52609 0,-0.3735 0.2641834,-0.61947 0.2641833,-0.24596 0.6786777,-0.24596 0.553419,0 0.769776,0.17992 l -0.134369,0.39627 q -0.0911,-0.066 -0.277848,-0.12754 -0.186751,-0.0615 -0.346172,-0.0615 -0.2322988,0 -0.3666679,0.1321 -0.1320917,0.13209 -0.1320917,0.33933 0,0.12754 0.047826,0.2323 0.047826,0.10477 0.1320917,0.17537 0.086543,0.0706 0.3507269,0.19813 l 0.273293,0.12982 q 0.341616,0.1617 0.478263,0.38716 0.138924,0.22319 0.138924,0.56936 0,0.37578 -0.3029,0.63769 -0.300623,0.2619 -0.8062152,0.2619 -0.4441013,0 -0.7583884,-0.20952 z"
         style="stroke-width:0.11660507"
         id="path2072"
         inkscape:connector-curvature="0" />
      <path
         d="m 13.766806,158.71613 h -0.113873 l -0.715117,-1.66026 -0.712839,1.66026 h -0.113872 l -0.872261,-2.49153 h 0.462321 l 0.521534,1.60105 0.649072,-1.60105 h 0.113872 l 0.669568,1.60105 0.560251,-1.60105 h 0.425882 z"
         style="stroke-width:0.11660507"
         id="path2074"
         inkscape:connector-curvature="0" />
      <path
         d="m 15.429338,155.30907 q 0.111595,0 0.189028,0.0797 0.07971,0.0774 0.07971,0.18675 0,0.1116 -0.07971,0.19131 -0.07743,0.0774 -0.189028,0.0774 -0.109317,0 -0.189027,-0.0774 -0.07743,-0.0797 -0.07743,-0.19131 0,-0.11159 0.07743,-0.18902 0.07743,-0.0774 0.189027,-0.0774 z m -0.236854,3.36151 v -2.07475 H 14.8577 v -0.36439 h 0.767498 v 2.43914 z"
         style="stroke-width:0.11660507"
         id="path2076"
         inkscape:connector-curvature="0" />
      <path
         d="m 16.467852,156.57305 h -0.282403 v -0.34161 h 0.282403 v -0.51015 l 0.432714,-0.16625 v 0.6764 h 0.669569 v 0.34161 h -0.669569 v 1.2116 q 0,0.30746 0.102485,0.43727 0.104763,0.12982 0.334784,0.12982 0.166254,0 0.343894,-0.0843 l 0.06377,0.38033 q -0.268739,0.0683 -0.589858,0.0683 -0.289235,0 -0.48965,-0.21408 -0.198138,-0.21636 -0.198138,-0.54431 z"
         style="stroke-width:0.11660507"
         id="path2078"
         inkscape:connector-curvature="0" />
      <path
         d="m 20.002443,156.42957 -0.214079,0.30518 q -0.06605,-0.066 -0.234577,-0.12526 -0.166253,-0.0592 -0.327952,-0.0592 -0.353003,0 -0.560251,0.24824 -0.207247,0.24596 -0.207247,0.6764 0,0.42816 0.211802,0.65363 0.211802,0.22319 0.58758,0.22319 0.291513,0 0.587581,-0.22547 l 0.170808,0.36439 q -0.348449,0.22547 -0.863151,0.22547 -0.49876,0 -0.824434,-0.33479 -0.325675,-0.33478 -0.325675,-0.90642 0,-0.58302 0.337062,-0.93603 0.339339,-0.353 0.926919,-0.353 0.189028,0 0.40994,0.0797 0.220912,0.0797 0.325674,0.16397 z"
         style="stroke-width:0.11660507"
         id="path2080"
         inkscape:connector-curvature="0" />
      <path
         d="m 21.979264,158.67058 v -1.53272 q 0,-0.27329 -0.134369,-0.43044 -0.134369,-0.15714 -0.378055,-0.15714 -0.157144,0 -0.316565,0.0934 -0.157143,0.0911 -0.241409,0.21408 v 1.81285 h -0.432714 v -3.43894 h 0.432714 v 1.26854 q 0.08654,-0.13437 0.277848,-0.22319 0.193583,-0.0911 0.398553,-0.0911 0.387165,0 0.6058,0.25507 0.220912,0.25508 0.220912,0.6969 v 1.53272 z"
         style="stroke-width:0.11660507"
         id="path2082"
         inkscape:connector-curvature="0" />
    </g>
    <rect
       style="display:none;fill:#ff0000;fill-opacity:0.36097562;stroke:#000000;stroke-width:0.34732547;stroke-miterlimit:4;stroke-dasharray:0, 3.82058063;stroke-dashoffset:0;stroke-opacity:0.00485439"
       id="rect10602"
       width="23.812502"
       height="15.874982"
       x="1.3229167"
       y="201.75" />
    <rect
       style="fill:#ffdd55;fill-opacity:0.36097562;stroke:#000000;stroke-width:0.93699968;stroke-miterlimit:4;stroke-dasharray:0, 10.30699663;stroke-dashoffset:0;stroke-opacity:0.00485439"
       id="rect10606"
       width="6.9347105"
       height="94.459618"
       x="15.62017"
       y="201.62511"
       ry="47.229809"
       rx="6.6292706e-08" />
    <g
       aria-label="Input
Source"
       transform="scale(0.86403757,1.1573571)"
       style="font-style:normal;font-variant:normal;font-weight:normal;font-stretch:normal;font-size:1.76934624px;line-height:1.25;font-family:sans-serif;-inkscape-font-specification:'sans-serif, Normal';font-variant-ligatures:normal;font-variant-caps:normal;font-variant-numeric:normal;font-feature-settings:normal;text-align:start;letter-spacing:0px;word-spacing:0px;writing-mode:lr-tb;text-anchor:start;fill:#000000;fill-opacity:1;stroke:none;stroke-width:0.13270096"
       id="text10612">
      <path
         d="m 2.278749,175.32762 h 0.1745155 v 1.28986 H 2.278749 Z"
         style="stroke-width:0.13270096"
         id="path10654"
         inkscape:connector-curvature="0" />
      <path
         d="m 3.5979832,176.03345 v 0.58403 H 3.4390185 v -0.57884 q 0,-0.13737 -0.053564,-0.20562 -0.053564,-0.0683 -0.1606926,-0.0683 -0.1287268,0 -0.2030255,0.0821 -0.074299,0.0821 -0.074299,0.22376 v 0.54688 H 2.7876088 v -0.96761 h 0.1598286 v 0.15032 q 0.05702,-0.0873 0.1339105,-0.13045 0.077755,-0.0432 0.1788353,-0.0432 0.1667402,0 0.2522701,0.10367 0.08553,0.10281 0.08553,0.30324 z"
         style="stroke-width:0.13270096"
         id="path10656"
         inkscape:connector-curvature="0" />
      <path
         d="m 4.0705577,176.47234 v 0.51318 H 3.9107291 v -1.33565 h 0.1598286 v 0.14687 q 0.050108,-0.0864 0.126135,-0.12787 0.076891,-0.0423 0.183155,-0.0423 0.1762435,0 0.2859637,0.13996 0.1105841,0.13996 0.1105841,0.36804 0,0.22808 -0.1105841,0.36803 -0.1097202,0.13996 -0.2859637,0.13996 -0.1062644,0 -0.183155,-0.0415 -0.076027,-0.0423 -0.126135,-0.12872 z m 0.5408256,-0.3378 q 0,-0.17538 -0.072571,-0.27474 -0.071707,-0.10021 -0.1978419,-0.10021 -0.1261351,0 -0.1987059,0.10021 -0.071707,0.0994 -0.071707,0.27474 0,0.17538 0.071707,0.27559 0.072571,0.0994 0.1987059,0.0994 0.126135,0 0.1978419,-0.0994 0.072571,-0.10021 0.072571,-0.27559 z"
         style="stroke-width:0.13270096"
         id="path10658"
         inkscape:connector-curvature="0" />
      <path
         d="m 5.0234819,176.23562 v -0.58575 h 0.1589647 v 0.5797 q 0,0.13737 0.053564,0.20648 0.053564,0.0683 0.1606925,0.0683 0.1287269,0 0.2030256,-0.0821 0.075163,-0.0821 0.075163,-0.22376 v -0.5486 h 0.1589647 v 0.96761 H 5.6748916 v -0.1486 q -0.057884,0.0881 -0.1347745,0.13132 -0.076027,0.0423 -0.1771074,0.0423 -0.1667401,0 -0.253134,-0.10367 -0.086394,-0.10367 -0.086394,-0.30324 z"
         style="stroke-width:0.13270096"
         id="path10660"
         inkscape:connector-curvature="0" />
      <path
         d="m 6.3202538,175.37513 v 0.27474 h 0.3274328 v 0.12354 H 6.3202538 v 0.52527 q 0,0.11836 0.031966,0.15206 0.03283,0.0337 0.1321826,0.0337 h 0.1632844 v 0.13305 H 6.4844022 q -0.184019,0 -0.253998,-0.0683 -0.069979,-0.0691 -0.069979,-0.25055 v -0.52527 H 6.0437935 v -0.12354 h 0.1166317 v -0.27474 z"
         style="stroke-width:0.13270096"
         id="path10662"
         inkscape:connector-curvature="0" />
      <path
         d="m 3.051974,177.58163 v 0.1702 q -0.099353,-0.0475 -0.1874747,-0.0708 -0.088122,-0.0233 -0.1701959,-0.0233 -0.1425499,0 -0.2203043,0.0553 -0.076891,0.0553 -0.076891,0.15724 0,0.0855 0.050972,0.12959 0.051836,0.0432 0.1952501,0.07 l 0.1054005,0.0216 q 0.1952502,0.0371 0.2876916,0.13132 0.093305,0.0933 0.093305,0.25054 0,0.18747 -0.1261351,0.28423 -0.1252711,0.0968 -0.3680378,0.0968 -0.091578,0 -0.1952501,-0.0207 -0.1028087,-0.0207 -0.2133929,-0.0613 v -0.1797 q 0.1062645,0.0596 0.2082092,0.0898 0.1019448,0.0302 0.2004338,0.0302 0.1494614,0 0.2306716,-0.0587 0.08121,-0.0588 0.08121,-0.1676 0,-0.095 -0.058748,-0.1486 -0.057884,-0.0536 -0.1909304,-0.0804 l -0.1062645,-0.0207 q -0.1952501,-0.0389 -0.2825079,-0.12182 -0.087258,-0.0829 -0.087258,-0.23067 0,-0.17106 0.1200875,-0.26955 0.1209514,-0.0985 0.3326163,-0.0985 0.090714,0 0.1848829,0.0164 0.094169,0.0164 0.1926583,0.0492 z"
         style="stroke-width:0.13270096"
         id="path10664"
         inkscape:connector-curvature="0" />
      <path
         d="m 3.769907,177.973 q -0.1278629,0 -0.2021617,0.10021 -0.074299,0.0994 -0.074299,0.27301 0,0.17365 0.073435,0.27387 0.074299,0.0993 0.2030256,0.0993 0.126999,0 0.2012977,-0.10022 0.074299,-0.10021 0.074299,-0.273 0,-0.17193 -0.074299,-0.27214 Q 3.896906,177.973 3.769907,177.973 Z m 0,-0.13478 q 0.2073452,0 0.3257048,0.13478 0.1183596,0.13477 0.1183596,0.37322 0,0.23758 -0.1183596,0.37322 -0.1183596,0.13477 -0.3257048,0.13477 -0.2082092,0 -0.3265688,-0.13477 -0.1174957,-0.13564 -0.1174957,-0.37322 0,-0.23845 0.1174957,-0.37322 0.1183596,-0.13478 0.3265688,-0.13478 z"
         style="stroke-width:0.13270096"
         id="path10666"
         inkscape:connector-curvature="0" />
      <path
         d="m 4.4601939,178.4473 v -0.58575 h 0.1589647 v 0.5797 q 0,0.13737 0.053564,0.20648 0.053564,0.0683 0.1606926,0.0683 0.1287268,0 0.2030255,-0.0821 0.075163,-0.0821 0.075163,-0.22376 v -0.5486 h 0.1589647 v 0.96761 H 5.1116036 v -0.1486 q -0.057884,0.0881 -0.1347744,0.13132 -0.076027,0.0423 -0.1771074,0.0423 -0.1667402,0 -0.2531341,-0.10367 -0.086394,-0.10367 -0.086394,-0.30324 z"
         style="stroke-width:0.13270096"
         id="path10668"
         inkscape:connector-curvature="0" />
      <path
         d="m 6.1604249,178.01015 q -0.026782,-0.0156 -0.058748,-0.0225 -0.031102,-0.008 -0.069115,-0.008 -0.1347744,0 -0.2073452,0.0881 -0.071707,0.0873 -0.071707,0.25141 v 0.50972 H 5.5936812 v -0.96761 h 0.1598287 v 0.15032 q 0.050108,-0.0881 0.1304547,-0.13045 0.080346,-0.0432 0.1952501,-0.0432 0.016415,0 0.036285,0.003 0.019871,0.002 0.044061,0.006 z"
         style="stroke-width:0.13270096"
         id="path10670"
         inkscape:connector-curvature="0" />
      <path
         d="m 6.988942,177.8987 v 0.1486 q -0.067387,-0.0371 -0.1356383,-0.0553 -0.067387,-0.019 -0.1365023,-0.019 -0.154645,0 -0.240175,0.0985 -0.08553,0.0976 -0.08553,0.27473 0,0.17711 0.08553,0.27559 0.08553,0.0976 0.240175,0.0976 0.069115,0 0.1365023,-0.0181 0.068251,-0.019 0.1356383,-0.0562 v 0.14687 q -0.066523,0.0311 -0.1382302,0.0466 -0.070843,0.0155 -0.1511892,0.0155 -0.2185765,0 -0.3473033,-0.13736 -0.1287269,-0.13737 -0.1287269,-0.37063 0,-0.23672 0.1295908,-0.37236 0.1304547,-0.13564 0.3568067,-0.13564 0.073435,0 0.1434138,0.0155 0.069979,0.0147 0.1356383,0.0449 z"
         style="stroke-width:0.13270096"
         id="path10672"
         inkscape:connector-curvature="0" />
      <path
         d="m 8.0965113,178.30561 v 0.0778 h -0.730892 q 0.010367,0.16415 0.098489,0.25054 0.088986,0.0855 0.2470864,0.0855 0.091577,0 0.1771074,-0.0225 0.086394,-0.0225 0.1710599,-0.0674 v 0.15033 q -0.08553,0.0363 -0.1753796,0.0553 -0.08985,0.019 -0.182291,0.019 -0.2315355,0 -0.3671739,-0.13477 -0.1347744,-0.13477 -0.1347744,-0.36458 0,-0.23759 0.1278629,-0.37668 0.1287268,-0.13996 0.3464394,-0.13996 0.1952501,0 0.308426,0.12614 0.1140399,0.12527 0.1140399,0.34125 z m -0.1589647,-0.0466 q -0.00173,-0.13045 -0.073435,-0.20821 -0.070843,-0.0777 -0.1883387,-0.0777 -0.1330465,0 -0.2133928,0.0752 -0.079482,0.0752 -0.091577,0.21166 z"
         style="stroke-width:0.13270096"
         id="path10674"
         inkscape:connector-curvature="0" />
    </g>
    <g
       aria-label="Timeout"
       style="font-style:normal;font-variant:normal;font-weight:normal;font-stretch:normal;font-size:1.98549068px;line-height:1.25;font-family:sans-serif;-inkscape-font-specification:'sans-serif, Normal';font-variant-ligatures:normal;font-variant-caps:normal;font-variant-numeric:normal;font-feature-settings:normal;text-align:start;letter-spacing:0px;word-spacing:0px;writing-mode:lr-tb;text-anchor:start;fill:#000000;fill-opacity:1;stroke:none;stroke-width:0.1489118"
       id="text10620"
       transform="matrix(0.85749287,0,0,0.89680503,1.2025972,20.953016)">
      <path
         d="m 8.4388567,203.10407 h 1.2244505 v 0.16481 H 9.149484 v 1.28262 H 8.9526799 v -1.28262 H 8.4388567 Z"
         style="stroke-width:0.1489118"
         id="path10639"
         inkscape:connector-curvature="0" />
      <path
         d="m 9.7835225,203.46568 h 0.1783839 v 1.08582 H 9.7835225 Z m 0,-0.42269 h 0.1783839 v 0.22589 H 9.7835225 Z"
         style="stroke-width:0.1489118"
         id="path10641"
         inkscape:connector-curvature="0" />
      <path
         d="m 11.179571,203.67412 q 0.06689,-0.12021 0.159963,-0.17741 0.09307,-0.0572 0.219102,-0.0572 0.169659,0 0.261759,0.11924 0.0921,0.11828 0.0921,0.33738 v 0.65537 h -0.179354 v -0.64955 q 0,-0.15609 -0.05526,-0.23171 -0.05526,-0.0756 -0.168689,-0.0756 -0.138635,0 -0.219102,0.0921 -0.08047,0.0921 -0.08047,0.2511 v 0.61368 h -0.179353 v -0.64955 q 0,-0.15706 -0.05526,-0.23171 -0.05526,-0.0756 -0.170628,-0.0756 -0.136697,0 -0.217163,0.0931 -0.08047,0.0921 -0.08047,0.25013 v 0.61368 h -0.179354 v -1.08582 h 0.179354 v 0.16869 q 0.06108,-0.0999 0.146391,-0.14736 0.08531,-0.0475 0.202621,-0.0475 0.118276,0 0.200682,0.0601 0.08338,0.0601 0.123124,0.17451 z"
         style="stroke-width:0.1489118"
         id="path10643"
         inkscape:connector-curvature="0" />
      <path
         d="m 13.198024,203.96399 v 0.0873 h -0.820179 q 0.01163,0.1842 0.110521,0.28115 0.09986,0.096 0.27727,0.096 0.102765,0 0.198743,-0.0252 0.09695,-0.0252 0.191957,-0.0756 v 0.16869 q -0.09598,0.0407 -0.196804,0.062 -0.100826,0.0213 -0.20456,0.0213 -0.25982,0 -0.412028,-0.15124 -0.151238,-0.15123 -0.151238,-0.40911 0,-0.26661 0.143482,-0.4227 0.144452,-0.15705 0.388761,-0.15705 0.219102,0 0.346103,0.14154 0.127972,0.14058 0.127972,0.38294 z m -0.178384,-0.0523 q -0.0019,-0.14639 -0.08241,-0.23364 -0.0795,-0.0872 -0.211346,-0.0872 -0.1493,0 -0.239461,0.0843 -0.08919,0.0843 -0.102765,0.23752 z"
         style="stroke-width:0.1489118"
         id="path10645"
         inkscape:connector-curvature="0" />
      <path
         d="m 13.911559,203.59075 q -0.143482,0 -0.226858,0.11246 -0.08338,0.11149 -0.08338,0.30635 0,0.19487 0.08241,0.30732 0.08338,0.11149 0.227827,0.11149 0.142514,0 0.225889,-0.11245 0.08338,-0.11246 0.08338,-0.30636 0,-0.19293 -0.08338,-0.30539 -0.08337,-0.11342 -0.225889,-0.11342 z m 0,-0.15124 q 0.232675,0 0.365493,0.15124 0.132819,0.15123 0.132819,0.41881 0,0.26661 -0.132819,0.41881 -0.132818,0.15124 -0.365493,0.15124 -0.233644,0 -0.366462,-0.15124 -0.131849,-0.1522 -0.131849,-0.41881 0,-0.26758 0.131849,-0.41881 0.132818,-0.15124 0.366462,-0.15124 z"
         style="stroke-width:0.1489118"
         id="path10647"
         inkscape:connector-curvature="0" />
      <path
         d="m 14.686172,204.12299 v -0.65731 h 0.178384 v 0.65052 q 0,0.15415 0.06011,0.23171 0.06011,0.0766 0.180323,0.0766 0.144453,0 0.227828,-0.0921 0.08434,-0.0921 0.08434,-0.2511 v -0.61562 h 0.178384 v 1.08582 h -0.178384 v -0.16675 q -0.06496,0.0989 -0.151238,0.14736 -0.08531,0.0475 -0.198743,0.0475 -0.18711,0 -0.284057,-0.11633 -0.09695,-0.11634 -0.09695,-0.34029 z"
         style="stroke-width:0.1489118"
         id="path10649"
         inkscape:connector-curvature="0" />
      <path
         d="m 16.141358,203.15739 v 0.30829 h 0.367432 v 0.13864 h -0.367432 v 0.58944 q 0,0.13282 0.03587,0.17063 0.03684,0.0378 0.14833,0.0378 h 0.183231 v 0.1493 h -0.183231 q -0.206499,0 -0.285027,-0.0766 -0.07853,-0.0776 -0.07853,-0.28115 v -0.58944 h -0.13088 v -0.13864 h 0.13088 v -0.30829 z"
         style="stroke-width:0.1489118"
         id="path10651"
         inkscape:connector-curvature="0" />
    </g>
    <g
       aria-label="Output"
       style="font-style:normal;font-variant:normal;font-weight:normal;font-stretch:normal;font-size:2.4854064px;line-height:1.25;font-family:sans-serif;-inkscape-font-specification:'sans-serif, Normal';font-variant-ligatures:normal;font-variant-caps:normal;font-variant-numeric:normal;font-feature-settings:normal;text-align:start;letter-spacing:0px;word-spacing:0px;writing-mode:lr-tb;text-anchor:start;fill:#000000;fill-opacity:1;stroke:none;stroke-width:0.18640549"
       id="text10624"
       transform="matrix(0.76408933,0,0,0.76408933,2.4002867,47.977221)">
      <path
         d="m 19.189982,203.15653 q -0.266987,0 -0.424752,0.19903 -0.156552,0.19902 -0.156552,0.54246 0,0.34223 0.156552,0.54126 0.157765,0.19903 0.424752,0.19903 0.266987,0 0.422325,-0.19903 0.156551,-0.19903 0.156551,-0.54126 0,-0.34344 -0.156551,-0.54246 -0.155338,-0.19903 -0.422325,-0.19903 z m 0,-0.19903 q 0.381063,0 0.609215,0.25607 0.228153,0.25485 0.228153,0.68445 0,0.4284 -0.228153,0.68446 -0.228152,0.25485 -0.609215,0.25485 -0.382277,0 -0.611643,-0.25485 -0.228153,-0.25485 -0.228153,-0.68446 0,-0.4296 0.228153,-0.68445 0.229366,-0.25607 0.611643,-0.25607 z"
         style="stroke-width:0.18640549"
         id="path10626"
         inkscape:connector-curvature="0" />
      <path
         d="m 20.378074,204.26574 v -0.82281 h 0.223298 v 0.81431 q 0,0.19296 0.07524,0.29005 0.07524,0.0959 0.225725,0.0959 0.180823,0 0.285191,-0.11529 0.105581,-0.11529 0.105581,-0.31432 v -0.77062 h 0.223298 v 1.35921 h -0.223298 v -0.20874 q -0.08131,0.12379 -0.189318,0.18447 -0.106795,0.0595 -0.248783,0.0595 -0.234221,0 -0.355578,-0.14563 -0.121358,-0.14563 -0.121358,-0.42596 z"
         style="stroke-width:0.18640549"
         id="path10628"
         inkscape:connector-curvature="0" />
      <path
         d="m 22.199653,203.05702 v 0.38591 h 0.459946 v 0.17354 h -0.459946 v 0.73786 q 0,0.16626 0.0449,0.21359 0.04612,0.0473 0.185677,0.0473 h 0.229366 v 0.18689 H 22.43023 q -0.258492,0 -0.356792,-0.0959 -0.0983,-0.0971 -0.0983,-0.35194 v -0.73786 h -0.163833 v -0.17354 h 0.163833 v -0.38591 z"
         style="stroke-width:0.18640549"
         id="path10630"
         inkscape:connector-curvature="0" />
      <path
         d="m 23.170515,204.59826 v 0.72086 h -0.224511 v -1.87619 h 0.224511 v 0.20631 q 0.07039,-0.12136 0.177183,-0.17961 0.108008,-0.0595 0.257278,-0.0595 0.24757,0 0.401694,0.1966 0.155338,0.1966 0.155338,0.51698 0,0.32038 -0.155338,0.51698 -0.154124,0.1966 -0.401694,0.1966 -0.14927,0 -0.257278,-0.0583 -0.106795,-0.0595 -0.177183,-0.18082 z m 0.7597,-0.47451 q 0,-0.24636 -0.101941,-0.38592 -0.100727,-0.14077 -0.277909,-0.14077 -0.177182,0 -0.279123,0.14077 -0.100727,0.13956 -0.100727,0.38592 0,0.24636 0.100727,0.38713 0.101941,0.13956 0.279123,0.13956 0.177182,0 0.277909,-0.13956 0.101941,-0.14077 0.101941,-0.38713 z"
         style="stroke-width:0.18640549"
         id="path10632"
         inkscape:connector-curvature="0" />
      <path
         d="m 24.509091,204.26574 v -0.82281 h 0.223298 v 0.81431 q 0,0.19296 0.07524,0.29005 0.07524,0.0959 0.225726,0.0959 0.180823,0 0.28519,-0.11529 0.105582,-0.11529 0.105582,-0.31432 v -0.77062 h 0.223298 v 1.35921 h -0.223298 v -0.20874 q -0.08131,0.12379 -0.189318,0.18447 -0.106795,0.0595 -0.248784,0.0595 -0.23422,0 -0.355578,-0.14563 -0.121358,-0.14563 -0.121358,-0.42596 z"
         style="stroke-width:0.18640549"
         id="path10634"
         inkscape:connector-curvature="0" />
      <path
         d="m 26.330671,203.05702 v 0.38591 h 0.459946 v 0.17354 h -0.459946 v 0.73786 q 0,0.16626 0.0449,0.21359 0.04612,0.0473 0.185678,0.0473 h 0.229366 v 0.18689 h -0.229366 q -0.258492,0 -0.356792,-0.0959 -0.0983,-0.0971 -0.0983,-0.35194 v -0.73786 h -0.163833 v -0.17354 h 0.163833 v -0.38591 z"
         style="stroke-width:0.18640549"
         id="path10636"
         inkscape:connector-curvature="0" />
    </g>
  </g>
</svg>
