<?xml version="1.0" encoding="UTF-8" standalone="no"?>
<!-- Created with Inkscape (http://www.inkscape.org/) -->

<svg
   xmlns:dc="http://purl.org/dc/elements/1.1/"
   xmlns:cc="http://creativecommons.org/ns#"
   xmlns:rdf="http://www.w3.org/1999/02/22-rdf-syntax-ns#"
   xmlns:svg="http://www.w3.org/2000/svg"
   xmlns="http://www.w3.org/2000/svg"
   xmlns:sodipodi="http://sodipodi.sourceforge.net/DTD/sodipodi-0.dtd"
   xmlns:inkscape="http://www.inkscape.org/namespaces/inkscape"
   width="90"
   height="50"
   viewBox="0 0 90 50"
   version="1.1"
   id="svg8"
   inkscape:version="0.92.2 5c3e80d, 2017-08-06"
   sodipodi:docname="ModIsOff.svg"
   style="enable-background:new">
  <defs
     id="defs2" />
  <sodipodi:namedview
     id="base"
     pagecolor="#ffffff"
     bordercolor="#666666"
     borderopacity="1.0"
     inkscape:pageopacity="0.0"
     inkscape:pageshadow="2"
     inkscape:zoom="2.1266667"
     inkscape:cx="-145.58241"
     inkscape:cy="112.38245"
     inkscape:document-units="px"
     inkscape:current-layer="layer9"
     showgrid="false"
     units="px"
     inkscape:snap-bbox="false"
     inkscape:snap-page="true"
     inkscape:bbox-nodes="true"
     inkscape:snap-bbox-edge-midpoints="true"
     inkscape:window-width="1440"
     inkscape:window-height="851"
     inkscape:window-x="32"
     inkscape:window-y="0"
     inkscape:window-maximized="0"
     inkscape:measure-start="0,0"
     inkscape:measure-end="0,0"
     inkscape:snap-text-baseline="true"
     inkscape:snap-nodes="false"
     inkscape:snap-others="false"
     inkscape:snap-grids="false"
     showguides="true"
     inkscape:guide-bbox="true"
     inkscape:snap-to-guides="false"
     inkscape:object-nodes="false"
     inkscape:snap-global="false">
    <inkscape:grid
       type="xygrid"
       id="grid6570"
       units="px"
       empspacing="5" />
    <sodipodi:guide
       position="42.884015,405.25395"
       orientation="1,0"
       id="guide6572"
       inkscape:locked="false" />
    <sodipodi:guide
       position="97.335423,242.16301"
       orientation="0,1"
       id="guide9071"
       inkscape:locked="false" />
  </sodipodi:namedview>
  <metadata
     id="metadata5">
    <rdf:RDF>
      <cc:Work
         rdf:about="">
        <dc:format>image/svg+xml</dc:format>
        <dc:type
           rdf:resource="http://purl.org/dc/dcmitype/StillImage" />
        <dc:title />
      </cc:Work>
    </rdf:RDF>
  </metadata>
  <g
     inkscape:label="Layer 1"
     inkscape:groupmode="layer"
     id="layer1"
     transform="translate(0,-526.45832)"
     style="display:inline;opacity:0.79000005">
    <rect
       style="display:inline;opacity:1;fill:#ff0000;fill-opacity:0.00675677;fill-rule:evenodd;stroke:#000000;stroke-width:0.38731605;stroke-miterlimit:4;stroke-dasharray:0, 4.26047694;stroke-dashoffset:0;stroke-opacity:0.00485439"
       id="rect1547"
       width="89.612686"
       height="49.612682"
       x="0.19365802"
       y="526.6524"
       inkscape:label="red" />
  </g>
  <g
     inkscape:groupmode="layer"
     id="layer9"
     inkscape:label="test">
    <g
       aria-label="MOD"
       style="font-style:normal;font-variant:normal;font-weight:bold;font-stretch:normal;font-size:21.33333397px;line-height:1.25;font-family:'Trebuchet MS';-inkscape-font-specification:'Trebuchet MS, Bold';font-variant-ligatures:normal;font-variant-caps:normal;font-variant-numeric:normal;font-feature-settings:normal;text-align:center;letter-spacing:0px;word-spacing:0px;writing-mode:lr-tb;text-anchor:middle;fill:#000000;fill-opacity:1;stroke:none"
       id="text13234">
      <path
         d="m 38.791666,32.645835 h -2.625 l -1.583333,-8.229167 -3.072917,8.427083 h -0.96875 l -3.072917,-8.427083 -1.645833,8.229167 h -2.614583 l 3.072916,-15.270834 h 1.4375 L 31.020833,27.656251 34.25,17.375001 h 1.427083 z"
         id="path13870"
         inkscape:connector-curvature="0" />
      <path
         d="m 39.75,24.875001 q 0,-3.260417 1.78125,-5.510417 1.791666,-2.260417 4.78125,-2.260417 3.291667,0 5.03125,2.041667 1.739583,2.041667 1.739583,5.729167 0,3.6875 -1.822916,5.854167 -1.8125,2.166667 -5.15625,2.166667 -3.072917,0 -4.718751,-2.145834 Q 39.75,28.604168 39.75,24.875001 Z m 2.8125,0 q 0,2.677083 0.90625,4.145833 0.90625,1.468751 2.635417,1.468751 2.03125,0 3.09375,-1.437501 1.072916,-1.4375 1.072916,-4.177083 0,-5.364583 -3.958333,-5.364583 -1.8125,0 -2.78125,1.458333 -0.96875,1.447917 -0.96875,3.90625 z"
         id="path13872"
         inkscape:connector-curvature="0" />
      <path
         d="M 58.864584,32.635418 H 55.479167 V 17.385417 q 3.239584,-0.114583 4.072917,-0.114583 3.333334,0 5.28125,1.958334 1.958334,1.947916 1.958334,5.177083 0,8.229167 -7.927084,8.229167 z M 58.187501,19.750001 v 10.416667 q 0.65625,0.0625 1.416666,0.0625 2.052084,0 3.208334,-1.489584 1.166667,-1.489583 1.166667,-4.166666 0,-4.895834 -4.552084,-4.895834 -0.4375,0 -1.239583,0.07292 z"
         id="path13874"
         inkscape:connector-curvature="0" />
    </g>
  </g>
</svg>
