<?xml version="1.0" encoding="UTF-8" standalone="no"?>
<!-- Created with Inkscape (http://www.inkscape.org/) -->

<svg
   xmlns:dc="http://purl.org/dc/elements/1.1/"
   xmlns:cc="http://creativecommons.org/ns#"
   xmlns:rdf="http://www.w3.org/1999/02/22-rdf-syntax-ns#"
   xmlns:svg="http://www.w3.org/2000/svg"
   xmlns="http://www.w3.org/2000/svg"
   xmlns:sodipodi="http://sodipodi.sourceforge.net/DTD/sodipodi-0.dtd"
   xmlns:inkscape="http://www.inkscape.org/namespaces/inkscape"
   width="90"
   height="380"
   viewBox="0 0 23.812501 100.54167"
   version="1.1"
   id="svg8"
   inkscape:version="0.92.2 5c3e80d, 2017-08-06"
   sodipodi:docname="MomentaryOnButtons.svg"
   enable-background="new">
  <defs
     id="defs2" />
  <sodipodi:namedview
     id="base"
     pagecolor="#ffffff"
     bordercolor="#666666"
     borderopacity="1.0"
     inkscape:pageopacity="0.0"
     inkscape:pageshadow="2"
     inkscape:zoom="1.4"
     inkscape:cx="137.05205"
     inkscape:cy="170.63765"
     inkscape:document-units="mm"
     inkscape:current-layer="layer1"
     showgrid="false"
     units="px"
     inkscape:snap-bbox="true"
     inkscape:snap-page="true"
     inkscape:bbox-nodes="true"
     inkscape:snap-bbox-edge-midpoints="true"
     inkscape:window-width="1440"
     inkscape:window-height="856"
     inkscape:window-x="0"
     inkscape:window-y="0"
     inkscape:window-maximized="0"
     inkscape:measure-start="0,0"
     inkscape:measure-end="0,0"
     inkscape:snap-text-baseline="true"
     inkscape:snap-nodes="true"
     inkscape:snap-others="true"
     inkscape:snap-grids="true" />
  <metadata
     id="metadata5">
    <rdf:RDF>
      <cc:Work
         rdf:about="">
        <dc:format>image/svg+xml</dc:format>
        <dc:type
           rdf:resource="http://purl.org/dc/dcmitype/StillImage" />
        <dc:title />
      </cc:Work>
    </rdf:RDF>
  </metadata>
  <g
     inkscape:label="Layer 1"
     inkscape:groupmode="layer"
     id="layer1"
     transform="translate(0,-196.45832)"
     style="opacity:1">
    <path
       style="opacity:1;vector-effect:none;fill:#f0f0f0;fill-opacity:1;fill-rule:evenodd;stroke:none;stroke-width:0.48607069;stroke-linecap:butt;stroke-linejoin:round;stroke-miterlimit:4;stroke-dasharray:none;stroke-dashoffset:0;stroke-opacity:1;paint-order:normal"
       d="M 0,196.45831 H 23.8125 V 296.99999 H 0 Z"
       id="rect817"
       inkscape:connector-curvature="0" />
    <g
       aria-label="Momentary On"
       transform="matrix(0.70388323,0,0,1.4206902,1.0790919,-0.01178185)"
       style="font-style:normal;font-weight:normal;font-size:3.52948356px;line-height:1.25;font-family:sans-serif;letter-spacing:0px;word-spacing:0px;fill:#000000;fill-opacity:1;stroke:none;stroke-width:0.08823708"
       id="text115">
      <path
         d="m 0.34639951,139.66051 h 0.51873757 l 0.65660802,1.75096 0.6600548,-1.75096 h 0.5187376 v 2.57301 h -0.339506 v -2.25935 l -0.6635016,1.76474 H 1.3476837 l -0.66350158,-1.76474 v 2.25935 H 0.34639951 Z"
         style="stroke-width:0.08823708"
         id="path117"
         inkscape:connector-curvature="0" />
      <path
         d="m 4.1274967,140.52565 q -0.2550604,0 -0.4032711,0.19991 -0.1482108,0.19819 -0.1482108,0.54459 0,0.3464 0.1464874,0.54631 0.1482107,0.19819 0.4049945,0.19819 0.2533369,0 0.4015476,-0.19991 0.1482108,-0.19991 0.1482108,-0.54459 0,-0.34295 -0.1482108,-0.54286 -0.1482107,-0.20164 -0.4015476,-0.20164 z m 0,-0.26885 q 0.4136113,0 0.6497145,0.26885 0.2361031,0.26885 0.2361031,0.7445 0,0.47393 -0.2361031,0.7445 -0.2361032,0.26885 -0.6497145,0.26885 -0.4153348,0 -0.6514379,-0.26885 -0.2343798,-0.27057 -0.2343798,-0.7445 0,-0.47565 0.2343798,-0.7445 0.2361031,-0.26885 0.6514379,-0.26885 z"
         style="stroke-width:0.08823708"
         id="path119"
         inkscape:connector-curvature="0" />
      <path
         d="m 7.0400103,140.67386 q 0.1189132,-0.2137 0.2843578,-0.31538 0.1654445,-0.10168 0.389484,-0.10168 0.3015916,0 0.4653128,0.21198 0.1637211,0.21025 0.1637211,0.59974 v 1.165 H 8.0240606 v -1.15466 q 0,-0.27747 -0.098233,-0.41189 -0.098233,-0.13443 -0.2998682,-0.13443 -0.2464435,0 -0.3894841,0.16372 -0.1430405,0.16373 -0.1430405,0.44636 v 1.0909 H 6.7746096 v -1.15466 q 0,-0.27919 -0.098233,-0.41189 -0.098233,-0.13443 -0.303315,-0.13443 -0.2429966,0 -0.3860372,0.16545 -0.1430406,0.16372 -0.1430406,0.44463 v 1.0909 H 5.5251587 v -1.93019 h 0.3188254 v 0.29987 q 0.108573,-0.17751 0.2602305,-0.26195 0.1516575,-0.0845 0.3601865,-0.0845 0.2102525,0 0.3567398,0.10685 0.1482107,0.10685 0.2188694,0.31021 z"
         style="stroke-width:0.08823708"
         id="path121"
         inkscape:connector-curvature="0" />
      <path
         d="m 10.628089,141.18915 v 0.15511 H 9.1701089 q 0.020681,0.32744 0.1964654,0.49978 0.1775082,0.17061 0.4928869,0.17061 0.1826788,0 0.3532928,-0.0448 0.172338,-0.0448 0.34123,-0.13442 v 0.29987 q -0.170615,0.0724 -0.349847,0.11029 -0.179231,0.0379 -0.363633,0.0379 -0.461866,0 -0.7324368,-0.26885 -0.2688473,-0.26885 -0.2688473,-0.72727 0,-0.47393 0.2550603,-0.75139 0.2567837,-0.27919 0.6910756,-0.27919 0.3894842,0 0.6152472,0.25162 0.227486,0.24989 0.227486,0.68073 z m -0.317102,-0.0931 q -0.0034,-0.26023 -0.146487,-0.41534 -0.141318,-0.1551 -0.3756974,-0.1551 -0.2654006,0 -0.425675,0.14993 -0.158551,0.14994 -0.1826784,0.42223 z"
         style="stroke-width:0.08823708"
         id="path123"
         inkscape:connector-curvature="0" />
      <path
         d="m 12.753017,141.06852 v 1.165 h -0.317102 v -1.15466 q 0,-0.27402 -0.10685,-0.41017 -0.106849,-0.13615 -0.320549,-0.13615 -0.256783,0 -0.404994,0.16372 -0.148211,0.16373 -0.148211,0.44636 v 1.0909 h -0.318825 v -1.93019 h 0.318825 v 0.29987 q 0.113743,-0.17406 0.267124,-0.26023 0.155105,-0.0862 0.35674,-0.0862 0.332613,0 0.503227,0.20681 0.170615,0.20508 0.170615,0.60491 z"
         style="stroke-width:0.08823708"
         id="path125"
         inkscape:connector-curvature="0" />
      <path
         d="m 13.702599,139.7553 v 0.54803 h 0.653162 v 0.24645 h -0.653162 v 1.04781 q 0,0.23611 0.06377,0.30332 0.06549,0.0672 0.263678,0.0672 h 0.325719 v 0.2654 h -0.325719 q -0.36708,0 -0.506674,-0.13615 -0.139594,-0.13787 -0.139594,-0.49978 v -1.04781 h -0.232656 v -0.24645 h 0.232656 v -0.54803 z"
         style="stroke-width:0.08823708"
         id="path127"
         inkscape:connector-curvature="0" />
      <path
         d="m 15.651743,141.26326 q -0.384314,0 -0.532525,0.0879 -0.14821,0.0879 -0.14821,0.29987 0,0.16889 0.110296,0.26885 0.11202,0.0982 0.303315,0.0982 0.263677,0 0.422228,-0.18613 0.160275,-0.18785 0.160275,-0.49805 v -0.0707 z m 0.632481,-0.13098 v 1.10124 h -0.317102 v -0.29297 q -0.108573,0.17578 -0.270571,0.26023 -0.161998,0.0827 -0.396378,0.0827 -0.296421,0 -0.472206,-0.16545 -0.174061,-0.16716 -0.174061,-0.44635 0,-0.32572 0.217146,-0.49117 0.218869,-0.16544 0.651437,-0.16544 h 0.444633 v -0.031 q 0,-0.21887 -0.144764,-0.33778 -0.143041,-0.12064 -0.403271,-0.12064 -0.165445,0 -0.322273,0.0396 -0.156827,0.0396 -0.301591,0.11891 v -0.29297 q 0.174061,-0.0672 0.337782,-0.1 0.163722,-0.0345 0.318826,-0.0345 0.418781,0 0.625587,0.21715 0.206806,0.21714 0.206806,0.65833 z"
         style="stroke-width:0.08823708"
         id="path129"
         inkscape:connector-curvature="0" />
      <path
         d="m 18.057583,140.59976 q -0.05342,-0.031 -0.11719,-0.0448 -0.06204,-0.0155 -0.13787,-0.0155 -0.268847,0 -0.413611,0.17578 -0.143041,0.17406 -0.143041,0.50151 v 1.01679 h -0.318825 v -1.93019 h 0.318825 v 0.29987 q 0.09996,-0.17578 0.260231,-0.26023 0.160274,-0.0862 0.389484,-0.0862 0.03274,0 0.07238,0.005 0.03964,0.003 0.08789,0.0121 z"
         style="stroke-width:0.08823708"
         id="path131"
         inkscape:connector-curvature="0" />
      <path
         d="m 19.196737,142.41275 q -0.134423,0.34468 -0.261954,0.4498 -0.12753,0.10513 -0.341229,0.10513 h -0.253337 v -0.2654 h 0.186125 q 0.130977,0 0.203359,-0.062 0.07238,-0.062 0.160275,-0.29298 l 0.05687,-0.14476 -0.780691,-1.89917 h 0.336059 l 0.603183,1.50969 0.603183,-1.50969 h 0.33606 z"
         style="stroke-width:0.08823708"
         id="path133"
         inkscape:connector-curvature="0" />
      <path
         d="m 22.664179,139.89662 q -0.379144,0 -0.603183,0.28263 -0.222316,0.28264 -0.222316,0.77035 0,0.486 0.222316,0.76863 0.224039,0.28263 0.603183,0.28263 0.379144,0 0.599736,-0.28263 0.222317,-0.28263 0.222317,-0.76863 0,-0.48771 -0.222317,-0.77035 -0.220592,-0.28263 -0.599736,-0.28263 z m 0,-0.28264 q 0.541141,0 0.865137,0.36364 0.323996,0.36191 0.323996,0.97198 0,0.60836 -0.323996,0.97199 -0.323996,0.36191 -0.865137,0.36191 -0.542865,0 -0.868584,-0.36191 -0.323995,-0.36191 -0.323995,-0.97199 0,-0.61007 0.323995,-0.97198 0.325719,-0.36364 0.868584,-0.36364 z"
         style="stroke-width:0.08823708"
         id="path135"
         inkscape:connector-curvature="0" />
      <path
         d="m 25.98858,141.06852 v 1.165 h -0.317102 v -1.15466 q 0,-0.27402 -0.106849,-0.41017 -0.10685,-0.13615 -0.320549,-0.13615 -0.256784,0 -0.404995,0.16372 -0.14821,0.16373 -0.14821,0.44636 v 1.0909 h -0.318826 v -1.93019 h 0.318826 v 0.29987 q 0.113743,-0.17406 0.267124,-0.26023 0.155104,-0.0862 0.356739,-0.0862 0.332613,0 0.503227,0.20681 0.170615,0.20508 0.170615,0.60491 z"
         style="stroke-width:0.08823708"
         id="path137"
         inkscape:connector-curvature="0" />
    </g>
    <path
       style="fill:#00cd00;stroke:#0000e6;stroke-width:0.265;stroke-linecap:butt;stroke-linejoin:miter;stroke-opacity:0.56097561;fill-opacity:1;stroke-miterlimit:4;stroke-dasharray:none"
       d="m 11.150297,206.09671 c 0,84.85566 0,84.85566 0,84.85566 v 0 z"
       id="path69"
       inkscape:connector-curvature="0" />
    <path
       style="fill:none;stroke:#00e0da;stroke-width:0.26458332px;stroke-linecap:butt;stroke-linejoin:miter;stroke-opacity:0.47804877"
       d="m 5.6696427,206.47469 c 0,84.0997 0.5669645,83.15476 0,0 z"
       id="path4589"
       inkscape:connector-curvature="0" />
    <path
       style="fill:none;stroke:#e40000;stroke-width:0.26458332px;stroke-linecap:butt;stroke-linejoin:miter;stroke-opacity:0.58048779"
       d="m 19.276786,206.85267 v 84.28868 z"
       id="path4591"
       inkscape:connector-curvature="0" />
  </g>
</svg>
